<svg width="121" height="19" viewBox="0 0 121 19" fill="none" xmlns="http://www.w3.org/2000/svg">
<g clip-path="url(#clip0_1383_10416)">
<path d="M43.6242 11.0452C43.6242 11.0452 43.9557 10.8259 44.5115 10.4018L38.7928 3.10986C36.8817 5.71761 33.703 9.06625 30.7876 11.1914C29.7004 12.0542 19.667 18.6881 12.944 18.9854H25.1615C27.3163 18.9854 31.1776 18.0837 34.0394 16.8213C37.6178 15.2956 41.4693 12.6976 43.6193 11.0452" fill="#111414"/>
<path d="M63.0961 18.9854L64.0761 9.68035L56.3244 0C51.8586 7.12134 45.9643 11.0452 45.9643 11.0452C43.8143 12.6975 39.9629 15.2955 36.3844 16.8212C33.5226 18.0836 29.6565 18.9854 27.5065 18.9854H63.101H63.0961Z" fill="#111414"/>
<path d="M0 19H10.8378V18.9854C17.5657 18.6881 27.5991 12.0541 28.6862 11.1914C28.969 10.9867 29.2567 10.7625 29.5443 10.5382L25.2394 5.31299C16.3079 17.645 0.463153 18.9366 0 19Z" fill="#111414"/>
<path d="M66.3235 0.0585938H78.541C82.9434 0.0585938 85.8686 1.70611 85.3811 6.62427C84.9228 11.2305 81.7977 12.878 77.9511 12.878H72.7443L72.1398 18.9465H64.4465L66.3235 0.0585938ZM73.1392 8.90544H74.709C77.4441 8.90544 77.6732 8.27665 77.8585 6.41955C78.0145 4.85003 77.7415 4.03602 75.5427 4.03602H73.6218L73.1392 8.90544Z" fill="#111414"/>
<path d="M88.0624 0.0585938H104.053L103.658 4.03602H95.3656L94.9756 7.95983H102.815L102.42 11.9372H94.5807L93.8835 18.9514H86.1903L88.0624 0.0585938Z" fill="#111414"/>
<path d="M106.296 0.0585938H113.989L112.571 14.3452H121L120.542 18.9514H104.419L106.296 0.0585938Z" fill="#111414"/>
</g>
<defs>
<clipPath id="clip0_1383_10416">
<rect width="121" height="19" fill="white"/>
</clipPath>
</defs>
</svg>
